# Blender v2.91.0 OBJ File: 'stoliczek.blend'
# www.blender.org
mtllib stoliczek.mtl
o Cube
v 0.913403 0.465164 -1.032514
v 0.359458 0.158101 -0.469369
v 0.919681 0.465988 0.974017
v 0.361402 0.158648 0.407890
v -1.086597 0.465164 -1.032514
v -0.514251 0.158101 -0.469369
v -1.086597 0.465164 0.967486
v -0.514251 0.158101 0.404341
v 0.359458 -0.052937 -0.469369
v 0.363270 -0.059247 0.415274
v -0.514251 -0.052937 -0.469369
v -0.514251 -0.052937 0.404341
v -0.349207 0.221638 -0.300576
vt 0.486312 0.934913
vt 0.171407 0.936662
vt 0.170242 0.464186
vt 0.485147 0.462438
vt 0.375000 0.750000
vt 0.625000 0.750000
vt 0.625000 1.000000
vt 0.375000 1.000000
vt 0.375000 0.000000
vt 0.625000 0.000000
vt 0.625000 0.250000
vt 0.375000 0.250000
vt 0.375000 0.500000
vt 0.375000 0.500000
vt 0.375000 0.250000
vt 0.625000 0.500000
vt 0.125000 0.500000
vt 0.375000 0.750000
vt 0.125000 0.750000
vt 0.375000 1.000000
vt 0.375000 0.000000
vn -0.0002 1.0000 -0.0002
vn -0.0013 -0.8784 0.4779
vn -0.4728 -0.8812 0.0000
vn 0.0000 0.0000 -1.0000
vn 0.4835 -0.8753 -0.0010
vn 0.0000 -0.8780 -0.4787
vn -0.0036 -1.0000 -0.0036
vn -0.0082 0.0172 0.9998
vn -1.0000 0.0000 0.0000
vn 1.0000 0.0043 -0.0033
usemtl mat_top
s off
f 1/1/1 5/2/1 7/3/1 3/4/1
usemtl mat_green
f 4/5/2 3/6/2 7/7/2 8/8/2
f 8/9/3 7/10/3 5/11/3 6/12/3
f 6/12/4 2/13/4 9/14/4 11/15/4
f 2/13/5 1/16/5 3/6/5 4/5/5
f 6/12/6 5/11/6 1/16/6 2/13/6
f 11/17/7 9/14/7 10/18/7 12/19/7
f 4/5/8 8/8/8 12/20/8 10/18/8
f 8/9/9 6/12/9 11/15/9 12/21/9
f 2/13/10 4/5/10 10/18/10 9/14/10
l 3 13
